<svg width="72" height="72" viewBox="0 0 72 72" fill="none" xmlns="http://www.w3.org/2000/svg">
<path fill-rule="evenodd" clip-rule="evenodd" d="M25.3117 57.6224L25.2588 57.7211L22.9577 62.1879L22.9048 62.1639C17.1445 59.4709 12.5239 54.822 9.86307 49.0426H9.85104L14.4532 46.684L14.369 46.5396C12.7381 44.1261 11.934 41.2479 12.0776 38.3376H0C0.32941 56.7969 15.2202 71.6703 33.6623 71.9759L33.6599 72V60.0051H33.6359C30.7365 60.1433 27.8703 59.3387 25.4656 57.7115L25.3117 57.6224Z" fill="#FFD202"/>
<path d="M27.3101 32.7674C27.3101 38.632 20.9846 39.6186 20.9846 45.596V48.0927H30.2124V45.1905H24.1774C24.1486 45.0464 24.1486 44.9023 24.1486 44.7559C24.1486 41.4191 30.5029 39.0378 30.5029 32.6522C30.5029 29.4019 28.8777 27.5437 25.745 27.5437C22.6098 27.5437 20.9846 29.4019 20.9846 32.6522V34.6256H24.0021V32.4483C24.0021 30.9983 24.6407 30.446 25.6585 30.446C26.6716 30.446 27.3101 30.9406 27.3101 32.7674ZM31.7368 44.4078H37.8894V48.0927H41.0246V44.4078H42.5346V41.5032H41.0246V27.7767H37.5438L31.7368 41.5055V44.4078ZM34.6679 41.5032L37.8894 33.8692V41.5032H34.6679Z" fill="white"/>
<path fill-rule="evenodd" clip-rule="evenodd" d="M35.0649 4.67535V9.52857H37.459V4.67535H35.0649ZM62.5366 34.9784V37.4026H67.3247V34.9784H62.5366ZM35.0649 11.9336V21.6137H37.459V11.9336H35.0649ZM46.0177 34.9784V37.4026H60.1425V34.9784H46.0177Z" fill="white"/>
<path d="M36.0012 0C16.1329 0 0 16.1331 0 36.0013H2.40216C2.40216 17.4326 17.4301 2.40216 36.0012 2.40216C54.5699 2.40216 69.5978 17.4302 69.5978 36.0013C69.5978 54.57 54.5699 69.5978 36.0012 69.5978V72C55.8671 72 72 55.8672 72 36.0013C72 16.1331 55.8695 0 36.0012 0Z" fill="white"/>
</svg>
