<svg width="482" height="110" viewBox="0 0 482 110" fill="none" xmlns="http://www.w3.org/2000/svg">
<path d="M14.12 6.56C11.1067 6.56 8.72 7.81333 6.96 10.32C5.2 12.8267 4.32 16.4533 4.32 21.2C4.32 26.96 5.64 30.68 8.28 32.36C9.08 32.8667 9.81333 33.2 10.48 33.36C11.1733 33.4933 11.9333 33.56 12.76 33.56C15.4 33.56 18.16 33.24 21.04 32.6L21.16 33.16C20.7067 33.32 19.4933 33.5333 17.52 33.8C15.5733 34.04 13.9867 34.16 12.76 34.16C11.5333 34.16 10.4667 34.08 9.56 33.92C8.65333 33.7333 7.69333 33.36 6.68 32.8C5.66667 32.24 4.8 31.5067 4.08 30.6C3.38667 29.6667 2.8 28.4 2.32 26.8C1.84 25.2 1.6 23.3333 1.6 21.2C1.6 16.48 2.68 12.8 4.84 10.16C7.10667 7.38667 10.2 6 14.12 6C15.32 6 16.6133 6.12 18 6.36C19.4133 6.57333 20.4133 6.78667 21 7L21.48 12.76L20.72 13.04L20.2 8.76C18.04 7.29333 16.0133 6.56 14.12 6.56ZM24.2547 24.8C24.2547 30.56 26.4947 33.44 30.9747 33.44C32.148 33.44 33.4014 33.32 34.7347 33.08C36.068 32.8133 36.9214 32.5733 37.2947 32.36L37.5747 32.76C36.9614 33.16 35.948 33.4933 34.5347 33.76C33.148 34.0267 31.868 34.16 30.6947 34.16C29.548 34.16 28.508 34.04 27.5747 33.8C26.668 33.56 25.7347 33.1333 24.7747 32.52C23.8147 31.9067 23.0547 30.9467 22.4947 29.64C21.9347 28.3333 21.6547 26.7333 21.6547 24.84C21.6547 21.32 22.5614 18.6267 24.3747 16.76C26.268 14.8133 28.468 13.84 30.9747 13.84C33.4814 13.84 35.388 14.5333 36.6947 15.92C38.028 17.3067 38.6947 19.2533 38.6947 21.76C38.6947 22.2933 38.6547 22.8667 38.5747 23.48H24.2947C24.268 23.7733 24.2547 24.2133 24.2547 24.8ZM36.3347 21.48C36.3347 19.48 35.8947 17.8533 35.0147 16.6C34.1347 15.32 32.9347 14.68 31.4147 14.68C29.4414 14.68 27.7747 15.5467 26.4147 17.28C25.3214 18.64 24.6414 20.4533 24.3747 22.72H36.2947C36.3214 22.4267 36.3347 22.0133 36.3347 21.48ZM40.7078 34.04L40.7478 33.48L42.8278 33.2C43.0145 33.1733 43.1345 33.04 43.1878 32.8V5.44C43.1878 5.14667 43.1078 5 42.9478 5L40.5078 4.92L40.5478 4.36C42.2278 4.12 43.3745 4 43.9878 4C44.6278 4 45.0811 4.17333 45.3478 4.52C45.6411 4.86667 45.7878 5.24 45.7878 5.64V33.2L48.7878 33.4C48.7878 33.4267 48.7745 33.6267 48.7478 34L40.7078 34.04ZM53.5734 24.8C53.5734 30.56 55.8134 33.44 60.2934 33.44C61.4668 33.44 62.7201 33.32 64.0534 33.08C65.3868 32.8133 66.2401 32.5733 66.6134 32.36L66.8934 32.76C66.2801 33.16 65.2668 33.4933 63.8534 33.76C62.4668 34.0267 61.1868 34.16 60.0134 34.16C58.8668 34.16 57.8268 34.04 56.8934 33.8C55.9868 33.56 55.0534 33.1333 54.0934 32.52C53.1334 31.9067 52.3734 30.9467 51.8134 29.64C51.2534 28.3333 50.9734 26.7333 50.9734 24.84C50.9734 21.32 51.8801 18.6267 53.6934 16.76C55.5868 14.8133 57.7868 13.84 60.2934 13.84C62.8001 13.84 64.7068 14.5333 66.0134 15.92C67.3468 17.3067 68.0134 19.2533 68.0134 21.76C68.0134 22.2933 67.9734 22.8667 67.8934 23.48H53.6134C53.5868 23.7733 53.5734 24.2133 53.5734 24.8ZM65.6534 21.48C65.6534 19.48 65.2134 17.8533 64.3334 16.6C63.4534 15.32 62.2534 14.68 60.7334 14.68C58.7601 14.68 57.0934 15.5467 55.7334 17.28C54.6401 18.64 53.9601 20.4533 53.6934 22.72H65.6134C65.6401 22.4267 65.6534 22.0133 65.6534 21.48ZM74.7066 5.64V15.6C76.3066 14.2933 78.0932 13.64 80.0666 13.64C81.8799 13.64 83.5866 14.2 85.1866 15.32C86.0399 15.9333 86.7199 16.8933 87.2266 18.2C87.7599 19.5067 88.0266 21.0933 88.0266 22.96C88.0266 26.5067 87.1466 29.1733 85.3866 30.96C83.3866 32.9867 80.8532 34 77.7866 34C76.6399 34 75.4932 33.9067 74.3466 33.72C73.2266 33.5333 72.4799 33.32 72.1066 33.08V5.32C72.0532 5.10667 71.9732 5 71.8666 5L69.4266 4.92L69.4666 4.36C71.1466 4.12 72.2932 4 72.9066 4C73.5466 4 73.9999 4.17333 74.2666 4.52C74.5599 4.86667 74.7066 5.24 74.7066 5.64ZM74.7066 16.36V33.28C75.4266 33.52 76.2666 33.64 77.2266 33.64C79.8399 33.64 81.8532 32.72 83.2666 30.88C84.7066 29.04 85.4266 26.4667 85.4266 23.16C85.4266 19.5333 84.7066 17.0933 83.2666 15.84C82.1466 14.8533 80.8532 14.36 79.3866 14.36C77.9199 14.36 76.3599 15.0267 74.7066 16.36ZM94.6384 15.64V18.84C96.7451 15.7467 98.8118 14.1733 100.838 14.12C100.998 14.12 101.158 14.12 101.318 14.12L103.558 14.4L102.518 16.8C102.012 16.2933 101.358 16.04 100.558 16.04C98.6118 16.0667 96.6384 17.36 94.6384 19.92V33.2L98.0384 33.4C98.0384 33.4267 98.0251 33.6267 97.9984 34L89.5984 34.04C89.5984 33.8 89.6118 33.6133 89.6384 33.48L91.7184 33.2C91.9318 33.1733 92.0384 32.9867 92.0384 32.64V15.28C91.9851 15.0933 91.9051 15 91.7984 15L89.3984 14.92L89.4384 14.36C90.8784 14.12 91.9718 14 92.7184 14C93.4651 14 93.9718 14.1733 94.2384 14.52C94.5051 14.8667 94.6384 15.24 94.6384 15.64ZM117.591 32.48H117.471C115.071 33.6 112.737 34.16 110.471 34.16C106.924 34.16 105.044 32.76 104.831 29.96C104.804 29.7733 104.791 29.6 104.791 29.44C104.791 27.3867 106.137 26.0133 108.831 25.32C110.431 24.9733 113.311 24.56 117.471 24.08V20.56C117.471 19.44 117.337 18.48 117.071 17.68C116.804 16.88 116.511 16.2933 116.191 15.92C115.871 15.52 115.457 15.2133 114.951 15C114.311 14.7333 113.591 14.6 112.791 14.6C112.017 14.6 111.124 14.8 110.111 15.2C108.644 15.8133 107.337 16.5867 106.191 17.52L106.031 20.64L105.271 20.84V16L105.671 15.84C107.751 14.9333 109.337 14.3867 110.431 14.2C111.524 14.0133 112.324 13.92 112.831 13.92C113.337 13.8933 113.817 13.8933 114.271 13.92C114.751 13.9467 115.364 14.0667 116.111 14.28C116.857 14.4933 117.497 14.8 118.031 15.2C118.591 15.5733 119.071 16.1467 119.471 16.92C119.871 17.6933 120.071 18.6133 120.071 19.68V31.92C120.071 32.7467 120.284 33.16 120.711 33.16L123.151 33.28L123.111 33.88C121.617 34.0933 120.284 34.2 119.111 34.2C118.791 34.1733 118.457 34.0133 118.111 33.72C117.764 33.4 117.591 32.9867 117.591 32.48ZM111.191 33.52C113.164 33.52 115.257 32.8267 117.471 31.44V24.84C113.471 24.9733 110.951 25.2133 109.911 25.56C108.897 25.88 108.191 26.4 107.791 27.12C107.417 27.8133 107.231 28.5067 107.231 29.2C107.231 29.3333 107.231 29.4667 107.231 29.6C107.311 30.9867 107.724 31.9867 108.471 32.6C109.217 33.2133 110.124 33.52 111.191 33.52ZM123.37 34.04L123.41 33.48L125.49 33.2C125.73 33.1733 125.85 32.9867 125.85 32.64V15.32C125.797 15.1067 125.717 15 125.61 15L123.17 14.92L123.21 14.36C124.89 14.12 126.024 14 126.61 14C127.677 14 128.277 14.4667 128.41 15.4H128.45V16.24C130.637 14.7467 132.73 13.96 134.73 13.88C136.677 13.88 138.157 14.2667 139.17 15.04C139.624 15.3867 140.024 15.9333 140.37 16.68C140.744 17.4 140.93 18.2667 140.93 19.28V33.2L143.93 33.4C143.93 33.4267 143.917 33.6267 143.89 34L135.89 34.04C135.89 33.8 135.904 33.6133 135.93 33.48L138.01 33.2C138.224 33.1733 138.33 32.9867 138.33 32.64V20.28C138.33 19.2133 138.184 18.3067 137.89 17.56C137.624 16.8133 137.317 16.2667 136.97 15.92C136.624 15.5733 136.197 15.3067 135.69 15.12C135.104 14.9067 134.49 14.8 133.85 14.8C132.25 14.8267 130.45 15.4533 128.45 16.68V33.2L131.45 33.4C131.45 33.4267 131.437 33.6267 131.41 34L123.37 34.04ZM153.503 33.24L155.063 33.16L155.183 33.56C155.156 33.56 154.969 33.6 154.623 33.68C153.823 33.8667 152.929 33.96 151.943 33.96C151.036 33.9067 150.209 33.76 149.463 33.52C148.716 33.2533 148.023 32.72 147.383 31.92C146.743 31.0933 146.423 30.04 146.423 28.76V14.72H144.383L144.703 14.4L146.463 14.04L146.783 10.2L149.023 10V14H153.863V14.72H149.023V28.08C149.023 30.1067 149.449 31.48 150.303 32.2C151.156 32.8933 152.223 33.24 153.503 33.24ZM9.52 73.24C11.4933 73.24 13.2267 72.6667 14.72 71.52C16.2133 70.3467 16.96 68.5733 16.96 66.2C16.96 65.1333 16.6933 64.2267 16.16 63.48C15.6533 62.7067 14.9733 62.12 14.12 61.72C13.2667 61.2933 12.3333 60.9333 11.32 60.64C10.3067 60.32 9.29333 59.9867 8.28 59.64C7.26667 59.2933 6.33333 58.88 5.48 58.4C4.62667 57.92 3.93333 57.24 3.4 56.36C2.89333 55.48 2.64 54.4267 2.64 53.2C2.64 51.0667 3.37333 49.32 4.84 47.96C6.30667 46.6 8.26667 45.92 10.72 45.92C13.1733 45.92 15.52 46.2 17.76 46.76L18.2 51.76L17.44 52.08L17.04 48.92C15.0667 47.4533 13.2133 46.72 11.48 46.72C9.74667 46.72 8.29333 47.2533 7.12 48.32C5.94667 49.36 5.36 50.9333 5.36 53.04C5.36 54.2667 5.85333 55.24 6.84 55.96C7.82667 56.68 9.01333 57.24 10.4 57.64C11.8133 58.04 13.2133 58.4933 14.6 59C16.0133 59.5067 17.2133 60.36 18.2 61.56C19.1867 62.76 19.68 64.32 19.68 66.24C19.68 68.8267 18.76 70.7733 16.92 72.08C15.08 73.3867 12.6533 74.04 9.64 74.04C6.62667 74.04 4.01333 73.2267 1.8 71.6L1.84 67.36L2.6 67.16L2.68 69.44C3.4 70.4533 4.38667 71.3467 5.64 72.12C6.89333 72.8667 8.18667 73.24 9.52 73.24ZM24.2937 64.8C24.2937 70.56 26.5337 73.44 31.0138 73.44C32.1871 73.44 33.4404 73.32 34.7737 73.08C36.1071 72.8133 36.9604 72.5733 37.3338 72.36L37.6137 72.76C37.0004 73.16 35.9871 73.4933 34.5737 73.76C33.1871 74.0267 31.9071 74.16 30.7338 74.16C29.5871 74.16 28.5471 74.04 27.6137 73.8C26.7071 73.56 25.7737 73.1333 24.8137 72.52C23.8537 71.9067 23.0937 70.9467 22.5337 69.64C21.9737 68.3333 21.6937 66.7333 21.6937 64.84C21.6937 61.32 22.6004 58.6267 24.4137 56.76C26.3071 54.8133 28.5071 53.84 31.0138 53.84C33.5204 53.84 35.4271 54.5333 36.7338 55.92C38.0671 57.3067 38.7337 59.2533 38.7337 61.76C38.7337 62.2933 38.6937 62.8667 38.6138 63.48H24.3337C24.3071 63.7733 24.2937 64.2133 24.2937 64.8ZM36.3738 61.48C36.3738 59.48 35.9338 57.8533 35.0537 56.6C34.1737 55.32 32.9737 54.68 31.4537 54.68C29.4804 54.68 27.8137 55.5467 26.4537 57.28C25.3604 58.64 24.6804 60.4533 24.4137 62.72H36.3337C36.3604 62.4267 36.3738 62.0133 36.3738 61.48ZM45.3869 55.64V58.84C47.4935 55.7467 49.5602 54.1733 51.5869 54.12C51.7469 54.12 51.9069 54.12 52.0669 54.12L54.3069 54.4L53.2669 56.8C52.7602 56.2933 52.1069 56.04 51.3069 56.04C49.3602 56.0667 47.3869 57.36 45.3869 59.92V73.2L48.7869 73.4C48.7869 73.4267 48.7735 73.6267 48.7469 74L40.3469 74.04C40.3469 73.8 40.3602 73.6133 40.3869 73.48L42.4669 73.2C42.6802 73.1733 42.7869 72.9867 42.7869 72.64V55.28C42.7335 55.0933 42.6535 55 42.5469 55L40.1469 54.92L40.1869 54.36C41.6269 54.12 42.7202 54 43.4669 54C44.2135 54 44.7202 54.1733 44.9869 54.52C45.2535 54.8667 45.3869 55.24 45.3869 55.64ZM78.9603 54C78.9603 54.0267 78.9736 54.2267 79.0003 54.6L75.8003 54.96L68.1203 74H65.7203L58.7603 55.28C58.6003 55.04 58.4003 54.8933 58.1603 54.84L56.0803 54.64L56.0403 54.04L64.4803 54C64.4803 54.0267 64.4936 54.2267 64.5203 54.6L61.5603 54.8L67.8403 73.16L74.4003 55.44C74.4803 55.3067 74.427 55.1867 74.2403 55.08C74.0803 54.9467 73.907 54.8667 73.7203 54.84L71.6403 54.64L71.6003 54.04L78.9603 54ZM84.715 55.64V73.2L87.715 73.4C87.715 73.4267 87.7017 73.6267 87.675 74L79.675 74.04C79.675 73.8 79.6883 73.6133 79.715 73.48L81.795 73.2C81.955 73.2 82.0617 73.08 82.115 72.84V55.28C82.0617 55.0933 81.9817 55 81.875 55L79.475 54.92L79.515 54.36C80.955 54.12 82.0483 54 82.795 54C83.5417 54 84.0483 54.1733 84.315 54.52C84.5817 54.8667 84.715 55.24 84.715 55.64ZM83.355 48.64C82.8217 48.64 82.4083 48.48 82.115 48.16C81.8217 47.8133 81.675 47.3733 81.675 46.84C81.675 46.28 81.8217 45.84 82.115 45.52C82.435 45.1733 82.8617 45 83.395 45C83.9283 45 84.355 45.1733 84.675 45.52C85.0217 45.84 85.195 46.2933 85.195 46.88C85.195 47.44 85.0217 47.88 84.675 48.2C84.3283 48.4933 83.8883 48.64 83.355 48.64ZM100.531 54.56C98.2646 54.56 96.4246 55.4533 95.0113 57.24C93.6246 59 92.9313 61.5067 92.9313 64.76C92.9313 70.5467 95.1313 73.44 99.5313 73.44C101.265 73.44 102.745 73.28 103.971 72.96C105.198 72.6133 105.865 72.4 105.971 72.32L106.251 72.76C105.638 73.16 104.625 73.4933 103.211 73.76C101.798 74.0267 100.518 74.16 99.3713 74.16C98.2246 74.16 97.1846 74.04 96.2513 73.8C95.3179 73.56 94.3713 73.1333 93.4113 72.52C92.4779 71.9067 91.7313 70.9467 91.1712 69.64C90.6113 68.3067 90.3313 66.6933 90.3313 64.8C90.3313 61.3067 91.2246 58.6667 93.0113 56.88C95.0113 54.8267 97.5313 53.8 100.571 53.8C101.531 53.8 102.545 53.9333 103.611 54.2C104.705 54.44 105.545 54.8267 106.131 55.36V60.6L105.371 60.88L105.171 56.68C104.585 56.0667 103.865 55.56 103.011 55.16C102.185 54.76 101.358 54.56 100.531 54.56ZM110.833 64.8C110.833 70.56 113.073 73.44 117.553 73.44C118.726 73.44 119.979 73.32 121.313 73.08C122.646 72.8133 123.499 72.5733 123.873 72.36L124.153 72.76C123.539 73.16 122.526 73.4933 121.113 73.76C119.726 74.0267 118.446 74.16 117.273 74.16C116.126 74.16 115.086 74.04 114.153 73.8C113.246 73.56 112.313 73.1333 111.353 72.52C110.393 71.9067 109.633 70.9467 109.073 69.64C108.513 68.3333 108.233 66.7333 108.233 64.84C108.233 61.32 109.139 58.6267 110.953 56.76C112.846 54.8133 115.046 53.84 117.553 53.84C120.059 53.84 121.966 54.5333 123.273 55.92C124.606 57.3067 125.273 59.2533 125.273 61.76C125.273 62.2933 125.233 62.8667 125.153 63.48H110.873C110.846 63.7733 110.833 64.2133 110.833 64.8ZM122.913 61.48C122.913 59.48 122.473 57.8533 121.593 56.6C120.713 55.32 119.513 54.68 117.993 54.68C116.019 54.68 114.353 55.5467 112.993 57.28C111.899 58.64 111.219 60.4533 110.953 62.72H122.873C122.899 62.4267 122.913 62.0133 122.913 61.48ZM132.747 73.52C132.907 73.52 133.067 73.5067 133.227 73.48C134.614 73.4533 135.774 73.0267 136.707 72.2C137.641 71.3467 138.107 70.1067 138.107 68.48C138.107 66.88 136.854 65.72 134.347 65C133.307 64.7067 132.267 64.3867 131.227 64.04C130.187 63.6933 129.294 63.1467 128.547 62.4C127.827 61.6533 127.467 60.68 127.467 59.48C127.467 57.7733 128.121 56.4133 129.427 55.4C130.734 54.36 132.387 53.84 134.387 53.84C135.881 53.84 137.387 54.1067 138.907 54.64L139.627 54.92V59.52L138.867 59.8L138.707 56.4C137.161 55.1733 135.867 54.56 134.827 54.56C133.361 54.56 132.201 55 131.347 55.88C130.494 56.7333 130.067 57.88 130.067 59.32C130.067 60.1467 130.427 60.8133 131.147 61.32C131.894 61.8267 132.787 62.2267 133.827 62.52C134.867 62.8133 135.907 63.1467 136.947 63.52C137.987 63.8667 138.867 64.4533 139.587 65.28C140.334 66.08 140.707 67.1333 140.707 68.44C140.707 70.2 140.041 71.6 138.707 72.64C137.401 73.6533 135.534 74.16 133.107 74.16C130.681 74.16 128.667 73.5867 127.067 72.44V67.84L127.787 67.56L127.987 70.96C128.361 71.6533 129.027 72.2533 129.987 72.76C130.974 73.2667 131.894 73.52 132.747 73.52ZM159.136 45.64V55.6C160.736 54.2933 162.523 53.64 164.496 53.64C166.31 53.64 168.016 54.2 169.616 55.32C170.47 55.9333 171.15 56.8933 171.656 58.2C172.19 59.5067 172.456 61.0933 172.456 62.96C172.456 66.5067 171.576 69.1733 169.816 70.96C167.816 72.9867 165.283 74 162.216 74C161.07 74 159.923 73.9067 158.776 73.72C157.656 73.5333 156.91 73.32 156.536 73.08V45.32C156.483 45.1067 156.403 45 156.296 45L153.856 44.92L153.896 44.36C155.576 44.12 156.723 44 157.336 44C157.976 44 158.43 44.1733 158.696 44.52C158.99 44.8667 159.136 45.24 159.136 45.64ZM159.136 56.36V73.28C159.856 73.52 160.696 73.64 161.656 73.64C164.27 73.64 166.283 72.72 167.696 70.88C169.136 69.04 169.856 66.4667 169.856 63.16C169.856 59.5333 169.136 57.0933 167.696 55.84C166.576 54.8533 165.283 54.36 163.816 54.36C162.35 54.36 160.79 55.0267 159.136 56.36ZM178.355 84L178.275 83.44L181.995 82.96C182.181 82.9333 182.301 82.7467 182.355 82.4L183.675 74H182.355L175.675 55.4L175.635 55.36C175.501 55.04 175.288 54.8533 174.995 54.8L173.195 54.64C173.168 54.48 173.155 54.28 173.155 54.04L181.555 54C181.555 54.0267 181.568 54.2267 181.595 54.6L178.475 54.84L184.395 72.96L191.835 55.36C191.915 55.2 191.861 55.0667 191.675 54.96C191.515 54.8533 191.341 54.7867 191.155 54.76L189.395 54.64C189.368 54.48 189.355 54.28 189.355 54.04L196.675 54C196.675 54.0267 196.688 54.2267 196.715 54.6L193.155 54.96L184.755 74L183.235 83.16L186.715 83.36C186.768 83.7333 186.795 83.9333 186.795 83.96L178.355 84Z" fill="white"/>
<path d="M220.08 68.56C218.907 68.56 217.787 68.3733 216.72 68L201.44 11.12C202.187 10.5867 203.28 10.16 204.72 9.84C206.213 9.46666 207.493 9.36 208.56 9.52L220.96 55.68L234.48 20.64C235.547 20.2667 236.693 20.08 237.92 20.08C238.987 20.08 240.08 20.2667 241.2 20.64L254.8 55.84L267.2 9.52C268.587 9.36 269.92 9.46666 271.2 9.84C272.48 10.16 273.467 10.5867 274.16 11.12L259.04 68C257.867 68.3733 256.72 68.56 255.6 68.56C254.427 68.56 253.307 68.3733 252.24 68L237.84 30.8L223.52 68C222.347 68.3733 221.2 68.56 220.08 68.56ZM272.044 62.4C273.377 61.9733 275.03 61.36 277.004 60.56C278.977 59.7067 280.844 58.8267 282.604 57.92C280.844 54.5067 279.964 50.56 279.964 46.08C279.964 42.7733 280.577 39.8667 281.804 37.36C283.03 34.8 284.737 32.8 286.924 31.36C289.11 29.8667 291.59 29.12 294.364 29.12C296.71 29.12 298.79 29.68 300.604 30.8C302.417 31.8667 303.83 33.36 304.844 35.28C305.857 37.2 306.364 39.4133 306.364 41.92C306.15 48.32 301.617 54.3733 292.764 60.08C294.524 61.5733 296.977 62.32 300.124 62.32C300.87 62.32 301.457 62.64 301.884 63.28C302.31 63.92 302.524 64.7733 302.524 65.84C302.524 66.8533 302.284 67.6533 301.804 68.24C301.324 68.8267 300.63 69.12 299.724 69.12C296.95 69.12 294.364 68.64 291.964 67.68C289.617 66.6667 287.724 65.28 286.284 63.52C284.31 64.5333 282.204 65.52 279.964 66.48C277.777 67.3867 275.91 68.08 274.364 68.56C273.51 67.8133 272.897 66.9333 272.524 65.92C272.097 64.9067 271.937 63.7333 272.044 62.4ZM286.924 45.44C286.924 49.2267 287.537 52.3733 288.764 54.88C292.444 52.4267 295.11 50.24 296.764 48.32C298.417 46.3467 299.297 44.2133 299.404 41.92C299.404 40 298.924 38.5067 297.964 37.44C297.057 36.32 295.777 35.76 294.124 35.76C292.044 35.76 290.31 36.6933 288.924 38.56C287.59 40.4267 286.924 42.72 286.924 45.44ZM299.674 69.12C298.981 69.12 298.421 68.8 297.994 68.16C297.568 67.52 297.354 66.6933 297.354 65.68C297.354 64.6133 297.621 63.7867 298.154 63.2C298.634 62.6133 299.301 62.32 300.154 62.32C303.408 62.32 306.181 61.3333 308.474 59.36C310.821 57.3867 313.221 53.9733 315.674 49.12L320.154 40.4C322.341 36.1333 324.421 33.2 326.394 31.6C328.368 29.9467 330.661 29.12 333.274 29.12C335.674 29.12 337.701 29.84 339.354 31.28C341.008 32.6667 342.154 34.56 342.794 36.96C344.288 34.4533 346.208 32.5333 348.554 31.2C350.901 29.8133 353.514 29.12 356.394 29.12C360.554 29.12 363.754 30.48 365.994 33.2C368.288 35.92 369.434 39.7333 369.434 44.64V54C369.434 56.9333 369.808 59.04 370.554 60.32C371.354 61.6 372.608 62.24 374.314 62.24C375.061 62.24 375.621 62.56 375.994 63.2C376.421 63.84 376.634 64.6933 376.634 65.76C376.634 66.6133 376.394 67.3867 375.914 68.08C375.488 68.7733 374.768 69.12 373.754 69.12C366.021 69.12 362.154 64.3733 362.154 54.88V44.64C362.154 38.88 359.888 36 355.354 36C353.008 36 350.928 36.9333 349.114 38.8C347.354 40.6667 345.968 43.2533 344.954 46.56C343.994 49.8667 343.514 53.7067 343.514 58.08V68C342.981 68.16 342.394 68.2933 341.754 68.4C341.114 68.5067 340.501 68.56 339.914 68.56C338.634 68.56 337.434 68.3733 336.314 68V42.48C336.314 40.4 336.048 38.8 335.514 37.68C334.981 36.56 334.021 36 332.634 36C331.568 36 330.554 36.6667 329.594 38C328.688 39.28 327.541 41.28 326.154 44L320.634 54.64C318.074 59.5467 315.088 63.2 311.674 65.6C308.314 67.9467 304.314 69.12 299.674 69.12ZM374.326 62.24C376.14 62.24 377.9 61.36 379.606 59.6C381.366 57.7867 382.833 55.36 384.006 52.32C383.953 51.5733 383.926 50.8267 383.926 50.08C383.926 46.0267 384.726 42.4267 386.326 39.28C387.926 36.1333 390.086 33.6533 392.806 31.84C395.58 30.0267 398.726 29.12 402.246 29.12C404.113 29.12 405.953 29.4933 407.766 30.24C409.58 30.9333 411.1 31.8933 412.326 33.12V0.799997C413.34 0.426662 414.566 0.239995 416.006 0.239995C417.233 0.239995 418.433 0.426662 419.606 0.799997V54C419.606 56.9333 419.98 59.04 420.726 60.32C421.526 61.6 422.78 62.24 424.486 62.24C425.233 62.24 425.793 62.56 426.166 63.2C426.593 63.84 426.806 64.6933 426.806 65.76C426.806 66.6133 426.566 67.3867 426.086 68.08C425.66 68.7733 424.94 69.12 423.926 69.12C418.86 69.12 415.446 67.04 413.686 62.88C412.14 64.8533 410.273 66.4 408.086 67.52C405.9 68.5867 403.473 69.12 400.806 69.12C397.713 69.12 394.966 68.4533 392.566 67.12C390.22 65.7333 388.3 63.84 386.806 61.44C383.5 66.56 379.153 69.12 373.766 69.12C373.073 69.12 372.513 68.8 372.086 68.16C371.66 67.52 371.446 66.6933 371.446 65.68C371.446 63.3867 372.406 62.24 374.326 62.24ZM391.366 50.08C391.366 53.8667 392.22 56.8533 393.926 59.04C395.686 61.1733 398.086 62.24 401.126 62.24C404.486 62.24 407.18 61.0933 409.206 58.8C411.286 56.5067 412.326 53.4933 412.326 49.76V40.8C411.26 39.36 409.9 38.2133 408.246 37.36C406.593 36.4533 404.886 36 403.126 36C400.833 36 398.806 36.6133 397.046 37.84C395.286 39.0667 393.9 40.7467 392.886 42.88C391.873 44.96 391.366 47.36 391.366 50.08ZM424.482 62.24C425.603 62.24 426.803 61.8933 428.083 61.2C429.363 60.5067 430.563 59.44 431.683 58C433.229 55.8667 434.296 53.36 434.883 50.48C435.523 47.6 435.843 44.8 435.843 42.08V30.24C436.323 30.08 436.883 29.9467 437.523 29.84C438.163 29.7333 438.829 29.68 439.523 29.68C440.749 29.68 441.949 29.8667 443.123 30.24V48.72C443.123 57.5733 446.349 62 452.803 62C456.589 62 459.363 60.48 461.123 57.44C462.936 54.3467 463.843 50.1333 463.843 44.8V30.24C464.963 29.8667 466.163 29.68 467.443 29.68C468.776 29.68 470.003 29.8667 471.123 30.24V63.6C472.243 62.8 473.389 62.0267 474.562 61.28C475.789 60.48 476.829 59.84 477.683 59.36C478.749 60 479.576 60.8267 480.163 61.84C480.749 62.8533 481.123 64.0267 481.283 65.36C480.483 65.8933 479.443 66.5867 478.163 67.44C476.936 68.24 475.683 69.0667 474.403 69.92C473.123 70.7733 472.029 71.4933 471.123 72.08V90.4C471.123 102.88 466.563 109.12 457.443 109.12C453.229 109.12 449.923 107.867 447.523 105.36C445.176 102.853 444.003 99.4133 444.003 95.04C444.003 85.28 450.669 76.1333 464.003 67.6V63.84C460.963 67.36 456.909 69.12 451.843 69.12C445.069 69.12 440.403 66.2667 437.843 60.56C436.989 62.1067 436.056 63.3867 435.043 64.4C433.603 65.84 431.923 66.9867 430.003 67.84C428.136 68.6933 426.109 69.12 423.922 69.12C423.176 69.12 422.616 68.7467 422.242 68C421.816 67.3067 421.602 66.5333 421.602 65.68C421.602 64.7733 421.842 63.9733 422.322 63.28C422.749 62.5867 423.469 62.24 424.482 62.24ZM451.203 94.88C451.203 97.1733 451.736 98.96 452.803 100.24C453.869 101.573 455.336 102.24 457.203 102.24C461.736 102.24 464.003 98.2933 464.003 90.4V76.08C455.469 82.1067 451.203 88.3733 451.203 94.88Z" fill="white"/>
</svg>
